<svg width="26" height="25" viewBox="0 0 26 25" fill="none" xmlns="http://www.w3.org/2000/svg">
<path d="M12.9965 5.84702C9.30533 5.84702 6.32637 8.59884 6.32637 12.0086C6.32637 15.4183 9.30533 18.1701 12.9965 18.1701C16.6877 18.1701 19.6666 15.4183 19.6666 12.0086C19.6666 8.59884 16.6877 5.84702 12.9965 5.84702ZM12.9965 16.0131C10.6094 16.0131 8.66141 14.2136 8.66141 12.0086C8.66141 9.80351 10.6094 8.00401 12.9965 8.00401C15.3836 8.00401 17.3316 9.80351 17.3316 12.0086C17.3316 14.2136 15.3836 16.0131 12.9965 16.0131ZM19.9398 4.15867C19.078 4.15867 18.382 4.80156 18.382 5.59767C18.382 6.39378 19.078 7.03667 19.9398 7.03667C20.8016 7.03667 21.4976 6.39678 21.4976 5.59767C21.4978 5.40863 21.4577 5.2214 21.3795 5.04671C21.3013 4.87201 21.1866 4.71328 21.0419 4.57961C20.8972 4.44594 20.7254 4.33996 20.5363 4.26772C20.3471 4.19549 20.1445 4.15843 19.9398 4.15867ZM25.9985 12.0086C25.9985 10.3503 26.0148 8.70699 25.914 7.05169C25.8132 5.12902 25.3384 3.42265 23.8164 2.01669C22.2911 0.607736 20.4472 0.172131 18.3658 0.079002C16.5706 -0.0141273 14.7917 0.000893574 12.9998 0.000893574C11.2046 0.000893574 9.42566 -0.0141273 7.63373 0.079002C5.55236 0.172131 3.70515 0.610741 2.18315 2.01669C0.657899 3.42565 0.186339 5.12902 0.0855228 7.05169C-0.0152934 8.70999 0.000967329 10.3533 0.000967329 12.0086C0.000967329 13.6639 -0.0152934 15.3102 0.0855228 16.9655C0.186339 18.8881 0.661151 20.5945 2.18315 22.0005C3.7084 23.4094 5.55236 23.845 7.63373 23.9381C9.42891 24.0313 11.2078 24.0163 12.9998 24.0163C14.7949 24.0163 16.5739 24.0313 18.3658 23.9381C20.4472 23.845 22.2944 23.4064 23.8164 22.0005C25.3416 20.5915 25.8132 18.8881 25.914 16.9655C26.0181 15.3102 25.9985 13.6669 25.9985 12.0086ZM23.1367 19.0924C22.8993 19.6392 22.6131 20.0477 22.1545 20.4683C21.696 20.8919 21.2569 21.1563 20.665 21.3756C18.9544 22.0035 14.8925 21.8623 12.9965 21.8623C11.1005 21.8623 7.03534 22.0035 5.32472 21.3786C4.73283 21.1593 4.29054 20.8949 3.83524 20.4713C3.37669 20.0477 3.0905 19.6422 2.85309 19.0954C2.17665 17.5122 2.3295 13.76 2.3295 12.0086C2.3295 10.2571 2.17665 6.50193 2.85309 4.92173C3.0905 4.37497 3.37669 3.9664 3.83524 3.54582C4.29379 3.12523 4.73283 2.85786 5.32472 2.63856C7.03534 2.01369 11.1005 2.15489 12.9965 2.15489C14.8925 2.15489 18.9577 2.01369 20.6683 2.63856C21.2602 2.85786 21.7025 3.12223 22.1578 3.54582C22.6163 3.96941 22.9025 4.37497 23.1399 4.92173C23.8164 6.50193 23.6635 10.2571 23.6635 12.0086C23.6635 13.76 23.8164 17.5122 23.1367 19.0924Z" fill="url(#paint0_linear)"/>
<defs>
<linearGradient id="paint0_linear" x1="25.7166" y1="3.66928" x2="0.898079" y2="22.9633" gradientUnits="userSpaceOnUse">
<stop offset="0.0001" stop-color="#2F1939"/>
<stop offset="0.295018" stop-color="#572146"/>
<stop offset="0.593882" stop-color="#A4045A"/>
<stop offset="0.985874" stop-color="#F76900" stop-opacity="0.75"/>
<stop offset="1" stop-color="#FBFF2B" stop-opacity="0.94"/>
<stop offset="1" stop-color="#FAFF07"/>
</linearGradient>
</defs>
</svg>
